<svg width="207" height="207" viewBox="0 0 207 207" fill="none" xmlns="http://www.w3.org/2000/svg">
<path d="M206.667 103.333C206.667 160.403 160.403 206.667 103.333 206.667C46.2638 206.667 0 160.403 0 103.333C0 46.2638 46.2638 0 103.333 0C160.403 0 206.667 46.2638 206.667 103.333ZM91.3808 158.048L168.048 81.3808C170.651 78.7775 170.651 74.5563 168.048 71.9529L158.62 62.525C156.016 59.9213 151.795 59.9213 149.191 62.525L86.6667 125.049L57.4754 95.8579C54.8721 93.2546 50.6508 93.2546 48.0471 95.8579L38.6192 105.286C36.0158 107.889 36.0158 112.11 38.6192 114.714L81.9525 158.047C84.5563 160.651 88.7771 160.651 91.3808 158.048Z" fill="#198754"/>
</svg>
