<svg width="70" height="76" viewBox="0 0 70 76" fill="none" xmlns="http://www.w3.org/2000/svg">
<path d="M43.4431 75.3619C42.9833 75.3619 42.6584 75.3619 42.3334 75.3619C29.1948 75.3619 16.0623 75.3619 2.92362 75.3619C0.777779 75.3619 0.0543265 74.5832 0.0543265 72.4681C0.0543265 64.4181 -0.0437689 56.3682 0.0236717 48.3182C0.0543265 44.4802 0.164685 40.6238 0.649031 36.8226C0.980103 34.2476 2.00397 31.7585 2.74582 29.2386C3.78195 25.7011 4.83035 22.1696 5.88487 18.6198C15.1794 18.6198 24.4249 18.6198 33.5416 18.6198C33.4374 19.7173 33.1431 20.8086 33.2658 21.8447C33.7624 25.885 38.2625 27.8224 41.5855 25.4436C43.578 24.0212 45.4909 22.4885 47.4467 21.0048C47.7103 20.8024 47.9801 20.6124 48.3847 20.312C47.6674 23.0035 46.993 25.5355 46.3124 28.0615C45.4357 31.3293 44.5345 34.591 43.6761 37.8649C43.5229 38.4412 43.4554 39.0543 43.4554 39.649C43.4432 51.1507 43.4431 62.6524 43.4431 74.1541C43.4431 74.4974 43.4431 74.8591 43.4431 75.3619Z" fill="#EECA93"/>
<path d="M50.3099 18.9753C50.4754 19.429 50.598 19.7294 50.69 20.036C52.5538 26.3202 54.4176 32.6106 56.2753 38.8948C56.404 39.324 56.496 39.7838 56.496 40.2253C56.5083 51.3346 56.5083 62.4439 56.5021 73.5532C56.5021 73.7248 56.4837 73.9026 56.4653 74.3134C55.8339 73.6819 55.3311 73.1853 54.8345 72.6887C53.8903 71.7445 52.9155 70.8372 52.0327 69.8439C51.7139 69.4822 51.4564 68.9182 51.4564 68.4461C51.4196 59.7279 51.4318 51.0096 51.4318 42.2914C51.4318 42.0768 51.4257 41.8684 51.4318 41.6538C51.4441 41.0959 51.3583 40.5502 50.6593 40.5625C50.0094 40.5747 49.9665 41.102 49.9727 41.6231C49.9788 44.5599 49.9788 47.4966 49.9788 50.4333C49.9788 56.4294 49.9911 62.4193 49.9543 68.4154C49.9543 68.8691 49.7274 69.4209 49.4209 69.7458C48.0107 71.2295 46.5332 72.6519 44.9698 74.203C44.9391 73.8168 44.9024 73.5654 44.9024 73.3141C44.9024 62.0515 44.8901 50.795 44.9269 39.5325C44.9269 38.6189 45.2273 37.6932 45.4664 36.7919C46.9685 31.1269 48.4951 25.468 50.0217 19.803C50.0769 19.5884 50.1688 19.3677 50.3099 18.9753Z" fill="#EECA93"/>
<path d="M63.0255 11.373C61.4866 11.373 59.9477 11.4037 58.4089 11.3608C57.5444 11.3362 57.1091 11.5447 57.0355 12.5502C56.8148 15.4808 54.4544 17.6756 51.5238 17.6082C49.9972 17.5714 48.82 18.0312 47.6551 18.9754C45.4235 20.784 43.1305 22.5252 40.813 24.2174C38.287 26.0628 34.9211 24.5423 34.6575 21.4768C34.5471 20.1832 35.0744 19.1348 35.9818 18.2336C38.5384 15.6953 41.0766 13.1387 43.621 10.5882C43.811 10.3982 44.0256 10.2143 44.1789 9.99355C44.5713 9.44176 44.3506 8.90836 43.6823 8.79188C43.4186 8.74283 43.1366 8.76735 42.8669 8.76735C37.1467 8.76735 31.4265 8.76735 25.7063 8.76735C25.3936 8.76735 25.0748 8.76735 24.7621 8.76735C24.7499 8.71218 24.7376 8.657 24.7253 8.60182C24.9461 8.47307 25.1606 8.33205 25.3875 8.20943C27.5395 7.04455 29.6975 5.8858 31.8495 4.72092C33.8298 3.65413 35.9327 3.07782 38.1889 3.07782C46.2695 3.08395 54.3502 3.07782 62.4369 3.07782C62.6147 3.07782 62.7925 3.10234 63.0255 3.11461C63.0255 5.84288 63.0255 8.54664 63.0255 11.373Z" fill="#EECA93"/>
<path d="M41.7572 10.4472C39.5929 12.5992 37.4348 14.7573 35.2522 16.8908C35.0744 17.0686 34.7004 17.1115 34.4184 17.1115C24.7928 17.1238 15.1672 17.1238 5.54156 17.1177C3.76358 17.1177 2.66614 16.008 2.62322 14.2361C2.61096 13.7824 2.5987 13.3287 2.63549 12.8751C2.74584 11.3914 3.78198 10.3675 5.26567 10.2326C5.47412 10.2142 5.68871 10.2203 5.90329 10.2203C17.5583 10.2203 29.2071 10.2203 40.862 10.2203C41.1257 10.2203 41.3893 10.2203 41.6529 10.2203C41.6836 10.2939 41.7204 10.3675 41.7572 10.4472Z" fill="#EECA93"/>
<path d="M69.9841 7.71275C69.9841 9.49686 70.0271 11.281 69.9719 13.0651C69.9044 15.1803 69.1503 15.5236 67.6544 15.3765C67.2927 15.3397 66.9309 15.3703 66.5692 15.3703C65.2204 15.3642 64.5828 14.8615 64.5644 13.4943C64.5153 9.62561 64.5153 5.75698 64.5644 1.88834C64.5828 0.496609 65.2204 0 66.6366 0C67.0597 0 67.4827 0 67.9057 0C69.3649 0 69.9474 0.551787 69.9719 2.09066C70.0087 3.9606 69.9841 5.83668 69.9841 7.71275Z" fill="#EECA93"/>
<path d="M46.1592 75.2882C47.7103 73.7616 49.2247 72.2656 50.7145 70.8003C52.143 72.2411 53.6451 73.7555 55.1594 75.2882C52.2043 75.2882 49.2063 75.2882 46.1592 75.2882Z" fill="#EECA93"/>
</svg>
