<svg width="70" height="69" viewBox="0 0 70 69" fill="none" xmlns="http://www.w3.org/2000/svg">
<path d="M70 61.9685C69.7105 61.9685 69.4692 61.9685 69.228 61.9685C53.0458 61.9685 36.8697 61.9685 20.6876 61.9685C18.5585 61.9685 17.1049 60.907 16.7853 59.0191C16.6888 58.4582 16.7189 57.8129 16.9059 57.2821C18.0941 53.9769 19.3426 50.7019 20.579 47.4148C20.6031 47.3485 20.6634 47.3002 20.766 47.1675C22.6357 48.41 24.7648 48.2652 26.8697 48.2592C29.3788 48.2471 31.8878 48.2471 34.3908 48.2592C36.0133 48.2652 37.6417 48.3074 39.2099 47.5777C39.3184 48.2411 39.3788 48.8442 39.5114 49.4353C40.2593 52.7767 42.7262 55.0807 46.2244 55.6175C49.2159 56.0758 51.9602 55.4667 54.2642 53.416C56.4777 51.4498 57.0507 48.8925 56.7732 46.0457C56.2485 40.714 55.7418 35.3822 55.2352 30.0505C55.2231 29.9299 55.2352 29.8093 55.2352 29.7067C55.9107 29.562 56.5561 29.4172 57.0627 29.3087C57.7624 29.9842 58.3293 30.9432 59.1315 31.2146C60.3136 31.6187 60.4162 32.3605 60.5006 33.3316C61.0917 40.1108 61.7129 46.8901 62.31 53.6754C62.4849 55.6657 62.4668 55.6657 64.3908 56.0216C67.4427 56.5885 69.8552 59.0915 70 61.9685ZM30.3257 58.1265C31.725 58.1265 33.1242 58.1386 34.5235 58.1205C35.3136 58.1144 35.579 57.831 35.585 57.0469C35.5971 56.0638 35.5971 55.0807 35.585 54.0976C35.5669 52.3243 34.3908 51.0577 32.6236 50.9914C31.1279 50.9371 29.626 50.9371 28.1303 50.9914C26.4174 51.0577 25.2593 52.252 25.193 53.9649C25.1508 54.9962 25.1689 56.0276 25.187 57.059C25.199 57.843 25.4765 58.1084 26.2726 58.1144C27.6236 58.1386 28.9747 58.1265 30.3257 58.1265Z" fill="#EECA93"/>
<path d="M17.5031 23.8443C16.4536 23.0541 15.5911 22.3605 14.6804 21.7514C14.3426 21.5282 13.8722 21.3714 13.4741 21.4016C8.03985 21.7755 2.61163 17.5535 1.69486 12.1917C0.995222 8.10843 3.28111 3.69951 7.24371 1.47996C13.6731 -2.12679 21.7914 1.15427 23.6671 8.12049C24.8915 12.6802 22.9433 17.2942 18.6611 19.7248C17.7926 20.2194 17.3824 20.7562 17.491 21.7514C17.5573 22.3786 17.5031 23.018 17.5031 23.8443ZM20.4705 11.293C20.4041 11.3111 20.3318 11.3352 20.2654 11.3533C20.2654 6.69106 17.0628 4.09155 13.2449 3.89251C11.3209 3.78998 9.54166 4.29661 8.01573 5.52098C6.12791 7.03485 5.42224 9.09154 5.32574 11.3774C4.94577 11.6428 4.49341 11.9444 4.415 12.3244C4.26422 13.024 4.9337 13.1265 5.45843 13.2411C5.45843 13.6151 5.45843 13.9347 5.45843 14.2544C5.47049 15.72 6.1641 16.4317 7.61766 16.4558C8.55252 16.4739 9.48738 16.4619 10.4222 16.4619C12.9313 16.4619 15.4343 16.4679 17.9434 16.4619C19.5356 16.4558 20.2353 15.7502 20.2473 14.17C20.2473 13.8563 20.2473 13.5367 20.2473 13.223C20.3197 13.2713 20.3921 13.3195 20.4645 13.3617C20.7479 13.0361 21.2727 12.6983 21.2546 12.3907C21.2304 11.9987 20.7479 11.6488 20.4705 11.293Z" fill="#EECA93"/>
<path d="M30.181 32.9999C33.0036 33.2894 35.7841 33.5789 38.5706 33.8684C41.0133 34.1277 43.462 34.363 45.8987 34.6645C47.8709 34.9118 49.1134 36.3835 49.0229 38.3799C48.8661 41.7152 48.6671 45.0566 48.4138 48.3859C48.2509 50.5391 48.9626 52.2339 50.7238 53.4824C50.7781 53.5186 50.8082 53.597 50.8625 53.6814C49.3547 54.3871 47.8287 54.4595 46.2545 54.0192C43.1604 53.1446 40.8866 50.2978 40.9288 47.2821C40.9349 46.8961 41.1882 46.492 41.3993 46.1422C41.8758 45.3521 42.5392 44.6404 42.8709 43.796C43.6128 41.9082 42.2919 40.0566 40.2533 40.0144C38.8299 39.9842 37.4005 40.0144 35.9771 40.0023C32.2497 39.9902 29.5899 36.8177 30.181 32.9999Z" fill="#EECA93"/>
<path d="M30.1688 31.2688C30.386 28.5789 31.4776 26.293 32.9433 24.1699C35.0784 21.0819 37.8528 18.6211 40.7297 16.2628C40.8624 16.1543 41.2183 16.1904 41.4052 16.2869C42.0144 16.6006 42.5633 17.0469 43.1905 17.2942C44.4451 17.7888 45.0301 18.79 44.9818 19.9842C44.9396 21.1603 44.5476 22.3243 44.2581 23.4763C44.1133 24.0372 43.8419 24.568 43.5765 25.2315C43.9445 25.2315 44.1978 25.2315 44.4571 25.2315C48.094 25.2315 51.7309 25.2254 55.3679 25.2375C56.4656 25.2375 57.135 25.9552 56.936 26.872C56.7852 27.5535 56.2967 27.9395 55.4704 27.9516C54.1917 27.9697 52.9131 27.9576 51.6344 27.9576C48.8057 27.9576 45.9831 27.9697 43.1543 27.9456C42.6899 27.9395 42.503 28.1084 42.2858 28.5185C41.6767 29.6886 40.9891 30.8165 40.2894 31.9383C40.1628 32.1374 39.813 32.3364 39.5838 32.3183C36.55 32.0288 33.5223 31.7031 30.4945 31.3774C30.404 31.3654 30.3196 31.3171 30.1688 31.2688Z" fill="#EECA93"/>
<path d="M19.3064 41.6609C18.0217 41.6609 16.8275 41.6609 15.6273 41.6609C14.5235 41.6609 13.4137 41.6609 12.31 41.6609C11.0494 41.6609 10.8263 41.3956 10.9891 40.0626C15.3197 40.0626 19.6562 40.0626 24.0531 40.0626C24.0531 40.5753 24.0531 41.0578 24.0531 41.6609C24.3908 41.6609 24.6743 41.6609 24.9578 41.6609C29.801 41.6609 34.6441 41.6609 39.4873 41.6609C40.1749 41.6609 40.9348 41.5886 41.3148 42.3184C41.7129 43.0783 41.2183 43.7176 40.8082 44.2725C39.6502 45.8467 38.0157 46.5825 36.0977 46.6006C32.2859 46.6368 28.4741 46.6247 24.6683 46.6006C24.041 46.5946 23.3655 46.5162 22.7925 46.287C20.778 45.4728 19.1073 44.3328 19.3064 41.6609Z" fill="#EECA93"/>
<path d="M53.9807 7.73447C51.5983 7.72241 49.2159 7.68622 46.8336 7.69828C46.1641 7.70431 46.0193 8.20492 46.0254 8.78393C46.0314 11.0216 46.0254 13.2592 46.0254 15.4968C46.0254 15.7622 46.0254 16.0336 46.0254 16.3714C44.5537 16.2508 43.3293 15.7019 42.2377 14.8394C39.6442 12.7767 38.7696 9.36294 40.0061 6.19648C41.1339 3.30142 44.0048 1.54026 47.2799 1.7393C50.6393 1.94436 53.1122 3.91662 53.9204 7.04087C53.9807 7.26403 53.9506 7.51131 53.9687 7.74653L53.9807 7.73447Z" fill="#EECA93"/>
<path d="M24.0651 38.7839C20.199 38.7839 16.4233 38.7839 12.5633 38.7839C12.5633 37.3304 12.5633 35.913 12.5633 34.4957C12.5633 33.6332 12.5512 32.7767 12.5693 31.9142C12.5995 30.5632 13.4258 29.6585 14.7647 29.6404C17.1471 29.6042 19.5355 29.6042 21.9179 29.6344C23.082 29.6525 24.0229 30.4788 24.047 31.5765C24.1013 33.9528 24.0651 36.3352 24.0651 38.7839Z" fill="#EECA93"/>
<path d="M57.684 63.6392C61.4596 63.6392 65.1629 63.6392 68.8661 63.6392C68.8058 66.1724 66.2968 68.4341 63.4861 68.4944C60.4524 68.5608 57.8951 66.4377 57.684 63.6392Z" fill="#EECA93"/>
<path d="M19.4873 63.6211C23.2448 63.6211 26.9541 63.6211 30.6634 63.6211C30.3679 66.5342 27.8468 68.597 24.7768 68.4884C21.9964 68.3979 19.5657 66.1663 19.4873 63.6211Z" fill="#EECA93"/>
<path d="M62.7805 25.2435C63.3716 25.2435 63.9627 25.2194 64.5477 25.2495C65.8746 25.3159 66.7974 26.3352 66.7974 27.6862C66.7974 29.0131 65.9047 30.0565 64.6201 30.1169C63.3716 30.1711 62.111 30.1772 60.8625 30.1169C59.5417 30.0565 58.6068 28.9709 58.6249 27.65C58.649 26.3171 59.5959 25.3159 60.9289 25.2435C61.5561 25.2194 62.1713 25.2435 62.7805 25.2435Z" fill="#EECA93"/>
<path d="M52.497 9.38104C52.4246 12.5234 50.1327 15.2918 47.7081 15.1772C47.696 15.0867 47.6659 14.9902 47.6659 14.8997C47.6659 13.0783 47.6659 11.2628 47.6659 9.38104C49.2823 9.38104 50.8625 9.38104 52.497 9.38104Z" fill="#EECA93"/>
<path d="M4.0772 29.6162C3.04584 29.6162 2.02051 29.6223 0.989143 29.6162C0.440289 29.6102 0 29.4474 0 28.796C0 28.1506 0.422194 27.9637 0.97708 27.9637C3.03377 27.9637 5.0965 27.9637 7.1532 27.9637C7.70808 27.9637 8.13631 28.1386 8.14234 28.7839C8.14837 29.4293 7.71411 29.6102 7.16526 29.6162C6.1339 29.6162 5.10253 29.6162 4.0772 29.6162Z" fill="#EECA93"/>
<path d="M4.95772 33.983C4.22189 33.983 3.48607 33.983 2.75024 33.983C2.22551 33.983 1.88173 33.7296 1.8576 33.2109C1.83347 32.65 2.18933 32.3485 2.73818 32.3485C4.25808 32.3364 5.77799 32.3364 7.29789 32.3485C7.81056 32.3545 8.14228 32.6199 8.14228 33.1627C8.14228 33.7477 7.79246 33.983 7.23758 33.983C6.47762 33.983 5.71767 33.983 4.95772 33.983Z" fill="#EECA93"/>
<path d="M5.9771 36.7513C6.44152 36.7513 6.90593 36.7393 7.37638 36.7574C7.87698 36.7755 8.14236 37.0589 8.14839 37.5535C8.15442 38.0481 7.87698 38.3557 7.39447 38.3738C6.44152 38.4039 5.4765 38.4462 4.52957 38.3436C4.24007 38.3135 3.81787 37.8732 3.76359 37.5656C3.67312 37.0831 4.0531 36.7694 4.58386 36.7574C5.04224 36.7453 5.51269 36.7513 5.9771 36.7513Z" fill="#EECA93"/>
<path d="M16.8094 52.7767C16.4174 53.8141 16.0495 54.7912 15.6695 55.7863C14.9518 55.72 14.5356 55.34 14.3486 54.7369C14.1496 54.0915 14.2159 53.4582 14.7286 52.9637C15.3317 52.3907 16.0193 52.4691 16.8094 52.7767Z" fill="#EECA93"/>
<path d="M53.9626 7.74652C54.8915 7.72843 55.8263 7.68621 56.7552 7.7043C57.2497 7.71034 57.5815 8.07825 57.485 8.52457C57.4186 8.82614 57.0447 9.24833 56.7733 9.27849C55.9108 9.37499 55.0242 9.31468 54.1376 9.31468C54.0833 8.7417 54.035 8.23506 53.9868 7.73446C53.9807 7.73446 53.9626 7.74652 53.9626 7.74652Z" fill="#EECA93"/>
<path d="M33.9445 56.4317C33.6791 56.4498 33.462 56.4739 33.2448 56.4739C31.1399 56.4799 29.0349 56.4739 26.8697 56.4739C26.8697 55.4968 26.8094 54.5921 26.8878 53.6995C26.9421 53.0783 27.4185 52.6802 28.0518 52.6681C29.5959 52.638 31.1459 52.6319 32.69 52.6681C33.3896 52.6862 33.8902 53.1989 33.9324 53.8925C33.9807 54.7248 33.9445 55.5571 33.9445 56.4317Z" fill="#EECA93"/>
<path d="M7.15918 10.7321C7.29187 7.61987 9.77679 5.41842 12.9975 5.48477C16.0796 5.54508 18.474 7.80081 18.4981 10.5632C17.5331 10.5632 16.5681 10.5089 15.6151 10.5873C15.1749 10.6235 14.7346 10.8708 14.3365 11.0939C13.4318 11.6006 12.4728 11.7333 11.5983 11.2025C10.1749 10.3581 8.72733 10.3099 7.15918 10.7321Z" fill="#EECA93"/>
<path d="M12.8167 14.7912C11.146 14.7912 9.47531 14.7731 7.81066 14.8033C7.28593 14.8093 6.97833 14.6827 7.09896 14.1157C7.21355 13.5849 6.7612 12.9336 7.45481 12.5174C8.34745 11.9746 9.34262 11.8479 10.193 12.3545C11.9904 13.4281 13.6912 13.3738 15.4826 12.3847C15.9409 12.1314 16.5742 12.0892 17.117 12.1314C18.4138 12.2219 19.0652 13.3256 18.5646 14.5198C18.4982 14.6766 18.1303 14.7792 17.9011 14.7792C16.2063 14.8033 14.5115 14.7912 12.8167 14.7912Z" fill="#EECA93"/>
</svg>
