<svg width="157" height="296" viewBox="0 0 157 296" fill="none" xmlns="http://www.w3.org/2000/svg">
<path d="M156.444 37.3375C156.355 36.355 156.132 35.5065 155.953 34.658C155.64 33.9434 155.461 33.4522 155.059 33.2736C154.121 32.7377 153.003 32.4697 151.752 32.6037C150.367 32.6037 148.892 32.7377 147.328 32.9163C145.719 32.9609 144.111 32.9609 142.457 32.8716C140.714 32.9163 139.195 32.3357 137.586 31.4872C136.916 31.0406 136.469 31.3532 136.156 32.1124C135.888 33.0056 135.62 34.1667 135.486 35.4172C135.352 36.8016 135.397 38.1413 135.531 39.615C135.531 40.9995 135.665 42.2052 135.844 43.0538C136.022 43.7683 135.978 44.6615 135.978 45.51C135.799 46.2692 135.62 47.1623 135.441 47.7875C135.129 48.5467 134.86 49.7972 134.101 50.2438C133.118 50.8243 129.721 52.5213 128.917 52.7C128.157 52.6553 127.532 52.7 127.308 52.6107C127.04 52.6553 126.817 52.5213 126.683 52.432C127.576 49.9758 128.157 47.2963 128.515 44.5275C129.006 41.7587 128.962 38.9005 128.649 35.6851C128.425 33.3629 127.621 31.4426 126.459 29.7902C125.208 28.3165 123.51 27.6913 121.32 28.3165C120.605 28.4951 119.846 28.7184 119.265 29.031C118.639 29.2096 118.058 29.3883 117.477 29.7009C117.209 28.2272 116.941 26.5301 116.449 24.4312C116.002 22.3769 115.556 20.144 114.975 18.0004C114.483 15.6781 113.768 13.4006 112.964 11.2123C112.115 8.93472 111.176 7.01441 110.014 5.27273C108.987 3.62037 107.601 2.28062 106.127 1.16416C104.652 0.18167 102.998 -0.130939 101.032 0.0476946C99.2894 0.226328 97.77 0.851544 96.4741 1.968C95.0888 3.08447 93.9716 4.55819 93.1672 6.52317C92.3629 8.35416 91.8266 10.4978 91.5585 13.0433C91.4244 15.5442 91.5585 18.2683 91.9607 21.0818C92.1394 21.7963 92.3182 22.1536 92.6757 22.0196C93.0332 21.975 93.2566 21.573 93.346 21.0818C94.2844 18.0004 95.4463 15.6781 96.7869 14.2937C98.0382 12.9093 99.4235 12.1501 100.943 12.1501C102.417 12.1501 103.982 12.7307 105.456 13.8471C107.065 14.9189 108.316 16.4373 109.612 18.313C110.774 20.0547 111.846 22.1983 112.561 24.4758C113.411 26.8874 113.902 29.2096 114.126 31.6659C111.221 33.8095 109.21 36.2657 107.869 39.2131C106.663 42.2946 105.724 45.376 105.277 48.5467C104.831 51.7175 104.607 54.7096 104.652 57.7017C104.786 60.5598 104.786 62.9267 104.697 64.8024C103.401 65.4276 102.417 65.8742 101.837 66.0528C101.256 66.2315 100.407 66.4548 99.2 66.6781V66.6334C99.5575 65.3383 99.9597 64.0879 100.183 62.7928C100.451 61.6317 100.585 60.3812 100.585 59.0415C100.853 55.5134 100.004 53.2359 98.3063 52.1641C96.6082 51.2262 94.061 50.8243 90.6201 51.1816C88.2963 51.4049 86.3301 52.0747 84.7214 53.2359C82.9339 54.263 81.5932 55.7814 80.6548 57.3444C79.5823 59.0861 78.912 61.0064 78.4651 63.0161C78.0183 65.0257 77.8842 67.1693 78.063 69.2682C78.1523 70.0274 78.4205 70.34 78.912 70.1614C79.4036 69.9828 79.9845 69.6702 80.6995 69.2236C81.4145 68.777 82.1295 68.3304 82.7998 67.8838C83.6489 67.4372 84.3639 67.214 84.9895 67.4372C85.7492 67.4819 86.4195 67.9285 87.2238 68.7323C88.0282 69.4022 88.4751 70.1167 88.5198 70.608C86.777 71.9031 85.3917 73.6448 83.4701 75.0738C81.2804 76.6815 79.1801 77.7533 76.2755 77.9766C72.1196 78.2892 66.8018 80.4328 64.6568 84.0948C59.6071 92.7586 58.1771 103.432 57.9984 106.335C57.8196 107.317 57.7303 108.166 57.775 109.014C57.6856 109.773 57.7303 110.488 57.7303 111.247C57.8643 112.006 57.8643 112.721 57.9984 113.569C58.1325 114.329 58.2665 115.177 58.49 116.115C58.0878 117.097 57.3728 118.169 56.0322 119.509C54.7809 120.715 53.3509 122.144 51.5634 123.796C49.91 125.449 48.0331 127.324 46.0669 129.512C44.19 131.611 42.3579 134.112 40.8385 136.702C39.2298 139.427 37.9338 142.329 36.9507 145.679C35.8782 148.894 35.4313 152.556 35.5654 156.486C35.9229 160.729 36.8613 164.346 38.2466 167.472C39.7213 170.643 41.5088 173.367 43.8325 175.421C46.0222 177.476 48.6141 179.128 51.6528 180.2C52.6806 180.602 53.7531 180.87 54.8703 181.138C51.1166 182.12 47.4969 182.745 43.9666 182.879C42.7601 182.924 42.1344 183.237 42.3579 183.728C42.4472 184.085 43.0282 184.353 43.8772 184.398C48.48 184.666 52.77 184.666 56.7472 184.442C53.2169 191.052 49.1503 197.259 44.5029 203.02C38.4254 210.523 31.6329 217.356 24.1702 223.652C16.5733 229.949 8.70839 235.799 0.619998 241.069C-0.05031 241.426 -0.139684 241.784 0.173126 242.096C0.619998 242.409 1.42437 242.409 2.45217 241.918C11.3896 237.854 19.9249 232.807 28.1026 226.6C36.2804 220.392 43.5197 213.56 49.8206 206.057C49.0609 207.933 48.2119 209.674 47.2288 211.282C46.1116 212.934 45.0391 214.453 43.8325 215.971C42.7154 217.49 41.5088 219.008 40.1682 220.526C38.8276 222.045 37.621 223.563 36.4145 225.081C33.4204 228.967 30.4711 232.584 27.7005 235.978C24.9298 239.372 22.5167 242.9 20.4611 246.518C18.4949 250.135 17.0202 253.931 15.9924 258.084C14.9646 262.103 14.7412 266.837 15.1433 272.062C15.7243 276.171 16.7521 279.699 18.3161 282.736C19.7908 285.772 21.6677 288.228 23.8127 290.238C26.047 292.248 28.5048 293.632 31.1414 294.481C33.8226 295.418 36.6826 295.686 39.632 295.508C42.8494 295.195 45.5753 294.525 47.9438 293.32C50.2228 292.203 52.2337 290.908 53.8872 289.122C55.5406 287.469 56.8812 285.728 57.9537 283.629C59.0262 281.664 59.8753 279.565 60.5009 277.466C61.9756 272.732 62.7352 267.194 62.5565 261.255L62.5118 259.424C63.0927 259.424 63.8971 259.29 64.6568 259.022C65.5505 258.888 66.5784 258.62 67.6062 258.129C68.634 257.637 69.6171 257.057 70.6449 256.342C71.7621 255.494 72.7899 254.556 73.8624 253.484C74.8902 253.216 76.0074 252.859 77.1692 252.234C78.197 251.743 79.1801 251.028 80.2079 250.18C81.3251 249.331 82.3082 248.17 83.2914 246.652V246.785C86.1513 246.25 88.5198 244.821 90.3966 242.588C92.2735 240.355 93.7929 237.675 94.8654 234.549C95.9379 231.557 96.5188 228.208 96.6529 224.858C96.7869 221.419 96.4741 218.338 95.8038 215.48C95.1335 212.622 94.1504 210.389 92.7204 208.692C91.2904 206.905 89.4582 206.146 87.4026 206.548C87.0451 206.548 86.7323 207.263 86.5535 208.647C86.3748 210.032 86.196 211.639 86.1067 213.247C85.9279 214.989 85.8385 216.462 85.7938 217.936C85.7045 219.321 85.7492 220.124 85.7492 220.348C85.7492 220.794 85.8832 220.928 86.1067 220.66C86.4195 220.303 86.6429 219.722 86.9557 218.785C89.1454 219.499 90.6648 220.526 91.6032 221.509C92.5416 222.625 93.0332 223.742 92.9885 225.037C93.0332 226.198 92.7204 227.448 91.9607 228.743C91.201 230.039 90.3073 231.066 89.3241 232.138C88.207 233.075 87.1792 233.924 85.9726 234.549C84.8554 235.174 83.8276 235.532 83.0232 235.532V235.666C83.0232 234.996 82.8892 234.415 82.7551 233.745C82.6211 233.165 82.487 232.629 82.3529 232.138C82.2189 231.557 81.8614 231.468 81.5486 231.468C81.1911 231.602 81.1017 231.825 81.0123 232.182C80.7889 232.986 80.7442 234.013 80.5208 235.04C80.4314 236.201 80.1186 237.229 79.7164 238.39C79.2695 239.417 78.5098 240.489 77.6161 241.426C76.7224 242.275 75.4711 242.99 73.907 243.347C73.9964 242.32 73.9517 241.159 73.8177 239.908C73.773 238.524 73.5049 237.497 73.1474 236.514C72.8792 235.933 72.6558 235.71 72.343 235.755C71.8961 235.889 71.6727 236.112 71.5833 236.559C71.4939 237.72 71.3152 238.97 71.1364 240.444C70.9577 241.918 70.6449 243.302 70.0193 244.597C69.483 245.982 68.5893 247.143 67.4721 248.125C66.2655 249.197 64.5227 249.822 62.3777 250.001C61.3499 250.135 60.1881 249.956 59.0262 249.644C57.8643 249.465 56.8365 249.018 55.764 248.482C54.6022 248.081 53.6637 247.634 52.7253 247.098C51.7869 246.652 51.1166 246.339 50.625 246.026C50.0441 245.714 49.6866 245.714 49.5972 245.848C49.3738 245.982 49.3738 246.294 49.3738 246.785L49.6419 256.164C49.6419 256.521 50.1334 256.834 51.0272 257.057C51.9656 257.28 52.8594 257.682 53.9319 258.441C55.0937 259.111 56.0322 260.094 57.0153 261.567C57.8643 263.041 58.4006 265.185 58.49 268.043C58.5793 270.32 58.1771 272.419 57.194 274.384C56.2109 276.349 55.0044 278.091 53.3509 279.654C51.6528 281.083 49.7759 282.289 47.4969 283.137C45.2178 283.986 42.8494 284.522 40.3023 284.611C34.4482 284.79 29.8454 283.539 26.4492 280.994C23.187 278.448 20.8633 274.742 19.9249 269.963C19.3886 266.658 19.3886 263.577 20.1036 260.585C20.6846 257.593 21.7571 254.69 23.187 251.921C24.617 249.242 26.3598 246.562 28.3261 243.972C30.2923 241.382 32.3032 238.836 34.4035 236.469C36.6379 234.013 38.7382 231.512 40.8385 229.19C43.0729 226.734 44.9497 224.367 46.6925 221.911C50.7591 216.06 54.2447 210.121 56.9259 204.092C59.6071 198.063 61.8415 192.034 63.4949 186.05C63.7184 185.246 63.9418 184.442 64.1652 183.683C64.6568 183.594 65.193 183.549 65.6399 183.46C71.8514 182.388 77.0352 180.378 81.1911 177.476C81.5933 177.208 81.9954 176.895 82.3529 176.582C83.2914 176.18 84.1851 175.734 85.0788 175.287C88.8773 173.367 92.4076 171.223 95.8485 168.678C99.2894 166.222 102.417 163.676 105.412 160.952C106.037 160.416 106.663 159.657 107.467 158.764C108.316 158.049 108.987 157.245 109.746 156.441C109.88 156.486 110.014 156.531 110.148 156.531C110.372 156.62 110.64 156.263 110.908 155.593C110.953 155.414 111.042 155.191 111.087 155.012C111.444 154.61 111.712 154.253 112.025 153.941C112.651 153.271 112.964 152.958 112.964 152.869C113.366 152.422 113.5 152.199 113.366 152.11C113.276 152.02 112.919 152.02 112.427 152.244C112.204 152.422 111.936 152.601 111.623 152.824C111.802 151.976 111.936 151.082 112.025 150.234C112.025 149.251 112.025 148.537 111.936 148.001C111.891 147.599 111.489 147.197 110.729 146.885C109.925 146.572 109.121 146.215 108.137 146.036C107.154 145.857 106.261 145.634 105.367 145.545C104.473 145.456 103.937 145.411 103.624 145.456C103.401 145.5 103.267 146.036 103.043 146.929C102.864 147.912 102.686 149.028 102.462 150.1C102.418 151.306 102.328 152.288 102.239 153.226C102.239 154.209 102.194 154.61 102.328 154.61C103.535 154.789 104.875 155.146 106.305 155.504C106.886 155.682 107.467 155.861 108.003 156.04C107.065 156.888 106.171 157.647 105.277 158.362C102.462 160.684 99.5575 163.006 96.4294 165.239C93.7482 167.293 90.7988 169.124 87.8048 170.777C88.8326 169.303 89.7263 167.74 90.5307 166.043C92.7204 161.354 93.9269 155.638 94.2844 148.805C94.2844 148.492 94.2844 148.18 94.3291 147.822C96.0272 147.197 97.5019 146.17 98.8872 144.83C101.077 142.687 102.909 140.007 104.294 136.836C105.68 133.8 106.618 130.361 107.065 126.878C107.512 123.305 107.467 120.045 107.02 117.008C106.573 113.971 105.769 111.515 104.428 109.639C103.088 107.63 101.211 106.692 99.0213 106.915C98.6638 106.915 98.2616 107.585 97.9488 109.014C97.636 110.443 97.2785 112.096 97.055 113.793C96.6975 115.579 96.5188 117.142 96.2953 118.705C96.0719 120.134 96.0272 120.983 96.0272 121.206C95.9825 121.697 96.1166 121.831 96.3847 121.608C96.7869 121.251 97.055 120.67 97.4572 119.732C99.6916 120.715 101.211 121.876 102.105 122.992C102.998 124.243 103.401 125.493 103.222 126.788C103.132 127.994 102.73 129.289 101.792 130.584C100.853 131.835 99.8703 132.862 98.7085 133.889C97.4572 134.782 96.34 135.541 94.9547 136.077C93.9716 136.479 93.0779 136.747 92.3629 136.836C91.6032 135.229 90.6201 133.755 89.3688 132.728C87.9835 131.701 86.4642 130.986 84.4085 130.763C83.0679 130.808 81.8614 131.076 80.9676 131.879C79.9398 132.683 79.0461 133.71 78.3758 134.871C77.8395 136.167 77.2586 137.462 76.9458 138.757C76.633 140.186 76.4542 141.392 76.3648 142.463C76.2308 144.875 76.5883 146.795 77.7055 148.314C78.6886 149.698 80.6101 150.413 83.1573 150.189C84.3639 150.145 85.481 149.966 86.4642 149.653C87.3132 149.207 88.207 148.894 88.6985 148.716C89.3241 148.492 89.8157 148.537 89.9051 148.671C90.1285 148.939 90.0838 149.519 89.8157 150.591C87.1345 161.175 81.0123 169.124 71.1811 174.483C69.3043 175.466 67.4721 176.404 65.6399 177.208C66.2655 174.171 66.8018 171.089 67.2486 168.053C68.0977 162.068 68.7233 156.352 69.2596 150.591C69.2596 149.921 68.9914 149.564 68.5446 149.564C68.1871 149.564 67.9637 149.921 67.7849 150.636C66.5337 160.282 63.8971 169.214 60.1434 177.565C59.1603 177.431 58.2218 177.297 57.2834 177.074C54.8256 176.493 52.4572 175.6 50.3569 174.394C48.3013 173.188 46.5585 171.715 45.0838 169.839C43.6538 168.053 42.626 165.954 42.0004 163.542C41.1513 160.595 40.9726 157.692 41.3301 155.012C41.7769 152.333 42.5813 149.877 43.6538 147.376C44.8604 145.009 46.3797 142.597 48.1225 140.409C49.8653 138.132 51.8316 136.033 53.7978 133.844C55.8534 131.656 57.9537 129.557 60.0093 127.592C62.199 125.493 64.1652 123.439 65.9974 121.34C67.1146 120.134 68.3658 118.839 69.7065 117.499C71.0471 116.294 72.2983 114.864 73.3261 113.257C74.3539 111.649 75.1583 109.773 75.5158 107.764C76.0073 105.71 75.918 103.253 75.2924 100.395C75.1583 99.5467 74.8455 99.234 74.0858 99.4573C73.4602 99.5913 72.8346 100.038 72.2983 100.663C71.5833 101.422 70.7343 102.315 69.6171 103.209C68.5893 104.102 67.4274 104.861 66.2655 105.442C65.1037 106.111 64.1652 106.558 63.2268 106.692C62.3777 106.915 61.8415 106.737 61.6181 106.201C61.7521 103.968 68.1424 91.1955 69.8405 89.3645C71.1811 87.8908 76.1861 87.7122 79.3589 86.819C81.8167 86.1491 84.1404 84.0948 84.8107 83.3803C86.6429 81.594 88.1623 80.1649 89.9051 78.3786C91.3798 76.8602 92.9438 76.3243 93.8822 75.8777H94.0163C94.4185 76.1903 95.0888 76.7709 96.1613 77.53C97.3232 78.1553 98.6191 78.5125 100.228 78.5125V78.6912C100.988 78.6019 101.837 78.4232 102.418 78.3339C103.132 78.1553 104.339 77.7533 105.903 77.2621C105.903 78.5125 106.037 79.9863 106.305 81.46C106.573 82.9337 106.842 84.4075 107.11 85.7472C107.467 87.087 107.825 88.1587 108.182 89.1412C108.54 90.1237 108.808 90.5703 108.987 90.7936C109.567 91.5975 109.925 91.4635 110.059 90.4363C110.104 89.4538 110.059 87.9355 109.88 86.1045C109.702 84.3628 109.523 82.3978 109.344 80.4328C109.165 78.4679 109.255 76.8155 109.389 75.5651C110.64 74.3146 112.115 72.9302 113.813 71.1439C115.645 69.4915 117.298 67.4372 119.086 65.0257C119.22 65.0257 120.203 65.0257 121.946 65.115C123.823 65.2936 126.415 65.0704 129.855 64.5791C131.956 64.3112 136.067 60.1133 137.72 58.193C138.927 56.7639 140.044 53.9504 140.536 50.9136C140.714 49.6632 140.446 47.341 140.983 46.6711C141.519 45.8672 141.966 45.4653 142.591 45.4206C142.859 45.376 143.351 45.3313 144.066 45.2867C144.692 45.3313 145.451 45.2867 146.3 45.1974C147.149 45.108 148.177 45.1527 149.16 45.0634C150.143 45.108 151.037 45.0187 151.752 44.9294C153.227 44.7954 154.21 44.5721 154.702 44.3935C155.417 43.9469 155.819 43.0537 156.042 41.6693C156.444 40.3296 156.578 38.8559 156.444 37.3375ZM123.152 41.9373C122.705 43.5897 121.856 45.2867 120.65 47.1623C119.577 49.1273 118.281 51.003 116.986 52.8786C115.556 54.7543 114.215 56.362 112.74 58.0143C111.266 59.5327 110.014 60.7831 108.852 61.7656C108.808 58.6395 108.897 55.7814 109.389 53.1466C109.88 50.601 110.819 48.4128 111.847 46.5818C112.919 44.7508 114.394 43.3664 116.181 42.4285C117.969 41.4014 120.024 40.9548 122.393 40.8208C122.884 40.9101 123.152 40.9995 123.286 41.0888C123.331 41.1781 123.376 41.446 123.152 41.9373Z" fill="#EECA93"/>
<path d="M145.719 98.7874C143.485 93.9196 140.67 89.1859 137.005 84.72C133.475 80.0755 129.185 75.8777 124.18 71.9031C123.912 71.5904 123.644 71.4565 123.331 71.2778C123.063 71.0992 122.75 71.2332 122.437 71.5458C122.125 71.8137 121.991 72.2603 121.633 72.9302C121.454 73.7787 121.231 74.9398 121.186 76.3689C121.186 79.0931 121.499 82.4424 122.169 86.3724C122.706 90.1237 123.51 94.3662 124.493 98.8767C125.61 103.253 126.504 107.898 127.755 112.721C128.828 117.544 129.9 122.322 130.973 126.967C132.045 131.79 132.984 136.3 133.788 140.498C134.592 144.696 135.129 148.492 135.263 151.931C135.263 152.065 134.503 153.181 132.805 155.414C131.107 157.513 128.425 160.103 124.672 163.23C120.918 166.356 116.136 169.75 110.372 173.367C104.562 177.118 97.5019 180.557 89.2795 183.772C88.8326 184.04 88.3857 184.308 88.0729 184.576C87.7601 184.844 87.7601 185.157 88.0282 185.425C88.1623 185.559 88.7432 185.737 89.7263 185.648C90.5754 185.693 91.916 185.469 93.7929 185.112C95.5804 184.8 97.3232 184.442 99.0213 184.085C98.7979 184.353 98.5744 184.71 98.3063 185.291C98.0382 186.139 97.77 187.256 97.5913 188.685C97.4125 191.409 97.4572 194.758 97.8147 198.733C98.0829 202.529 98.5744 206.816 99.2 211.371C99.9597 215.792 100.541 220.526 101.434 225.394C102.149 230.262 102.864 235.13 103.579 239.863C104.294 244.731 104.92 249.286 105.412 253.574C105.903 257.816 106.171 261.657 106.037 265.095C106.037 265.229 105.188 266.301 103.311 268.4C101.479 270.365 98.5744 272.732 94.5973 275.59C90.6201 278.448 85.6151 281.44 79.5823 284.656C73.5049 287.961 66.2209 290.863 57.775 293.453C57.3281 293.677 56.8365 293.9 56.5237 294.168C56.2109 294.436 56.1662 294.704 56.4344 295.017C56.5684 295.195 57.1047 295.374 58.1325 295.374C58.9815 295.463 60.3221 295.329 62.199 295.151C70.5555 294.302 78.1077 293.007 84.9895 291.265C91.7373 289.479 97.7254 286.71 102.954 283.003C108.182 279.297 112.427 274.295 115.779 268.043C119.265 261.925 121.722 253.841 123.197 243.883C124.136 238.613 124.18 233.433 123.778 228.297C123.242 223.161 122.125 218.115 120.292 212.934C118.416 207.933 116.002 202.976 112.651 198.242C109.478 193.374 105.546 188.819 100.853 184.487C100.63 184.219 100.407 184.04 100.183 183.906C105.948 182.656 111.266 181.272 116.226 179.575C122.84 177.297 128.604 174.082 133.52 170.018C138.48 165.909 142.323 160.639 145.228 154.119C148.267 147.778 150.099 139.516 150.858 129.468C151.395 124.153 151.037 118.973 150.278 113.882C149.473 108.746 147.954 103.789 145.719 98.7874ZM115.958 220.884C118.103 225.93 119.131 230.708 119.131 235.487C119.131 240.265 118.326 244.642 116.628 249.108C114.796 253.395 112.606 257.325 109.657 261.165C110.148 257.146 110.238 252.814 110.104 248.036C110.104 243.391 109.657 238.568 109.255 233.567C108.852 228.565 108.272 223.742 107.557 218.874C106.842 214.14 106.082 209.585 105.546 205.432C110.238 210.657 113.813 215.882 115.958 220.884ZM144.647 135.184C143.128 139.561 141.206 143.669 138.569 147.733C138.748 143.714 138.525 139.382 138.033 134.603C137.676 129.959 136.871 125.181 136.112 120.268C135.352 115.356 134.414 110.533 133.341 105.754C132.269 101.11 131.151 96.5992 130.347 92.4906C135.441 97.3137 139.419 102.271 141.921 107.139C144.424 112.006 145.809 116.695 146.166 121.429C146.479 126.208 145.988 130.629 144.647 135.184Z" fill="#EECA93"/>
<path d="M91.3351 189.667C90.5307 189.355 89.7264 188.997 88.7433 188.819C87.7601 188.64 86.8664 188.417 85.9726 188.328C85.0789 188.238 84.5427 188.194 84.2298 188.238C84.0064 188.283 83.8724 188.819 83.6489 189.712C83.4702 190.694 83.2914 191.811 83.1127 192.883C83.068 194.089 82.9786 195.071 82.8892 196.009C82.8892 196.991 82.8445 197.393 82.9786 197.393C84.1852 197.572 85.5258 197.929 86.9558 198.286C88.4304 198.733 89.637 199.135 90.7542 199.403C90.9776 199.492 91.2457 199.135 91.5139 198.465C91.7373 197.795 91.9607 196.902 92.1842 196.009C92.3629 195.026 92.5864 194.044 92.6757 193.061C92.6757 192.079 92.6757 191.364 92.5864 190.828C92.497 190.382 92.1395 189.98 91.3351 189.667Z" fill="#EECA93"/>
</svg>
