<svg width="70" height="67" viewBox="0 0 70 67" fill="none" xmlns="http://www.w3.org/2000/svg">
<path d="M5.24351 48.8579V66.4996L16.7177 63.4543L13.0353 48.1508L5.24351 48.8579Z" fill="#EECA93"/>
<path d="M55.8376 47.8638C55.4245 47.2827 54.6615 47.0657 54.0034 47.3387L43.9014 51.5252C42.2842 52.1972 40.5411 52.5333 38.7839 52.5053L32.3222 52.4142C31.7272 52.4072 31.2651 51.9102 31.2931 51.3151C31.3141 50.8671 31.6222 50.4821 32.0562 50.363L38.6159 48.5429C39.3999 48.3258 39.862 47.5208 39.666 46.7367C39.498 46.0716 38.9029 45.6026 38.2098 45.6026H28.3738C27.0857 45.6026 25.8046 45.8266 24.5935 46.2676L16.7177 49.1449L19.3359 60.9061L21.7232 60.325C22.2552 60.192 22.8013 60.122 23.3543 60.101L39.1689 59.513C40.7931 59.45 42.3752 58.9319 43.7194 58.0218L55.4526 50.034C56.1666 49.544 56.3346 48.5639 55.8376 47.8638Z" fill="#EECA93"/>
<path d="M0 37.2367C0 37.2367 0.777077 39.3649 4.60646 39.3649H9.0029C9.0029 39.3649 9.56996 43.8314 12.3562 43.8314H56.6567C59.4429 43.8314 60.01 39.3649 60.01 39.3649H65.3935C69.2229 39.3649 70 37.2367 70 37.2367H0Z" fill="#EECA93"/>
<path d="M34.5065 8.40082C19.833 8.40082 7.93179 20.295 7.93179 34.9755H61.0741C61.0741 20.295 49.1799 8.40082 34.5065 8.40082ZM21.8352 15.9826C21.5061 16.3326 21.1631 16.6757 20.8481 17.0397L20.6101 17.3127L20.491 17.4457C20.449 17.4947 20.414 17.5367 20.379 17.5857L19.931 18.1458C19.3499 18.9089 18.8039 19.693 18.3208 20.512C17.3477 22.1432 16.5637 23.8724 15.9826 25.6575C15.6886 26.5466 15.4435 27.4497 15.2545 28.3598C15.1565 28.8149 15.0795 29.2699 15.0095 29.718C14.9745 29.942 14.9465 30.166 14.9255 30.39L14.9045 30.558L14.8905 30.7191C14.8835 30.7751 14.8835 30.8241 14.8765 30.8731C14.8765 30.9011 14.8765 30.9221 14.8695 30.9431V30.9781C14.8695 30.9851 14.8695 30.9851 14.8695 30.9921V30.9991L11.3551 30.579L11.3691 30.509L11.3831 30.453C11.3901 30.418 11.3971 30.376 11.4041 30.341C11.4181 30.271 11.4321 30.201 11.4531 30.138L11.5021 29.935L11.5512 29.739C11.6212 29.4799 11.6912 29.2209 11.7682 28.9689C11.9222 28.4648 12.0902 27.9678 12.2722 27.4777C12.6363 26.4976 13.0563 25.5525 13.5183 24.6284C14.4424 22.7873 15.5766 21.0581 16.8647 19.4829C17.5087 18.6989 18.2088 17.9568 18.9369 17.2567L19.4969 16.7457C19.546 16.7037 19.588 16.6616 19.637 16.6196L19.784 16.5006L20.071 16.2556C20.449 15.9266 20.8551 15.6255 21.2471 15.3175C22.8573 14.1274 24.6005 13.1473 26.4136 12.3772C24.7475 13.3993 23.2003 14.6104 21.8352 15.9826Z" fill="#EECA93"/>
<path d="M35.2065 6.44764C36.6697 6.12561 37.7688 4.82348 37.7688 3.26232C37.7688 1.46314 36.3126 0 34.5065 0C32.7073 0 31.2441 1.45614 31.2441 3.26232C31.2441 4.82348 32.3432 6.12561 33.8064 6.44764V8.40084L34.5065 8.40082L35.2065 8.40084V6.44764Z" fill="#EECA93"/>
</svg>
